<svg width="20px" height="20px" viewBox="0 0 42 42" xmlns="http://www.w3.org/2000/svg">
  <path data-name="30.User" d="M24,45A21,21,0,1,1,45,24,21,21,0,0,1,24,45Zm11.633-6c-.157-.231-.355-.518-.514-.742-.277-.394-.554-.788-.8-1.178C34.305,37.062,32.935,35.224,28,35a2.922,2.922,0,0,1-2.968-3.066L25,31c0-.135-.016.148,0,0V30l1-1a14.435,14.435,0,0,0,2.4-1.464l.135-.093A4.643,4.643,0,0,0,30,26l.036-.381A55.987,55.987,0,0,0,31,19c0-4.71-2.29-7-7-7-4.775,0-7,2.224-7,7a54.693,54.693,0,0,0,.963,6.616l.035.352a3.981,3.981,0,0,0,1.449,1.462l.1.062A19.174,19.174,0,0,0,22,29l1,1v1c.014.138,0-.146,0,0l-.033.934A2.9,2.9,0,0,1,20.084,35h0c-4.956.2-6.393,2.077-6.4,2.077-.252.4-.528.789-.807,1.184-.157.224-.355.51-.513.741a18.917,18.917,0,0,0,23.267,0ZM24,5A18.986,18.986,0,0,0,10.85,37.694c.382-.565.79-1.129,1.15-1.694,0,0,1.67-2.743,8-3,.645,0,.967-.422.967-1.066h0c0-.521,0-.934,0-.934,0-.13-.021-.247-.027-.373A17.5,17.5,0,0,1,18.4,29.133S16,27.657,16,26a60.16,60.16,0,0,1-1-7c0-4.644,1.986-9,9-9,6.92,0,9,4.356,9,9a61.784,61.784,0,0,1-1,7c0,1.611-2.4,3.133-2.4,3.133a13.873,13.873,0,0,1-2.543,1.546c0,.109-.023.209-.023.321,0,0,0,.413,0,.934h0c0,.644.32,1.066.965,1.066,6.424.288,8,3,8,3,.36.565.767,1.129,1.149,1.694A18.985,18.985,0,0,0,24,5Z" transform="translate(-3 -3)" fill-rule="evenodd"/>
</svg>
